<svg width="752" height="752" viewBox="0 0 752 752" fill="none" xmlns="http://www.w3.org/2000/svg">
<circle cx="376" cy="376" r="376" fill="black"/>
<path fill-rule="evenodd" clip-rule="evenodd" d="M425.659 126C425.659 126 192.263 256.328 109 600C246.49 464.946 301.655 411.93 342.805 377.564C337.756 386.265 333.573 516.408 339 527C344.427 537.592 385.178 600 385.178 600C385.178 600 371.982 578.566 365.505 506.184C359.028 433.801 373.828 351.514 373.828 351.514C379.214 347.366 391.75 337.51 391.75 337.51C378.75 386.863 379.503 496.348 380.638 506.184C381.773 516.019 397.284 600 397.284 600C445.49 471.044 560.302 279.492 561.478 280.722C562.066 281.337 557.62 275.283 551.325 266.712L551.322 266.709C545.028 258.139 535.809 247.052 529 237.596C536.922 231.488 545.897 225.191 553.959 218.763L553.963 218.76C577.856 199.71 630.455 162.965 634.873 159.668C639.292 156.371 642.008 155.001 642 154.655C641.99 154.25 638.971 155.521 633.875 157.958C606.129 171.227 516 219.5 516 219.5C512.722 215.854 510.028 212.358 507 209C465.569 161.136 464.333 159.082 437.25 126C425.191 193.103 414.441 231.137 395.5 302.5L378.75 317.444L425.659 126ZM408.634 516.776L406.743 508.453C405.716 439.207 419.39 317.295 422.632 315.706C425.875 314.117 475.547 277.385 508.378 253.442L528.185 280.722C474.487 368.91 448.512 421.167 408.634 516.776ZM174 494.787C253.009 415.752 293.456 380.589 324.583 355.95C330.931 350.925 345.514 339.137 345.708 338.053C345.903 336.968 381.458 196.503 381.458 196.503C287.884 279.041 246.317 349.837 174 494.787ZM428.307 280.343L494.5 234L452.52 183.122L441.549 231.165L428.307 280.343Z" fill="#FFD700" stroke="black"/>
</svg>
